<?xml version="1.0" standalone="no"?>
<!DOCTYPE svg PUBLIC "-//W3C//DTD SVG 20010904//EN"
 "http://www.w3.org/TR/2001/REC-SVG-20010904/DTD/svg10.dtd">
<svg version="1.0" xmlns="http://www.w3.org/2000/svg"
 width="512.000000pt" height="512.000000pt" viewBox="0 0 512.000000 512.000000"
 preserveAspectRatio="xMidYMid meet">

<g transform="translate(0.000000,512.000000) scale(0.100000,-0.100000)"
fill="#000000" stroke="none">
<path d="M1038 4935 c-438 -74 -782 -421 -853 -860 -22 -134 -22 -2896 0
-3030 66 -408 360 -729 770 -842 l100 -28 1505 0 1505 0 97 27 c378 104 652
378 756 756 l27 97 0 1505 0 1505 -27 97 c-52 187 -132 330 -263 467 -147 154
-303 242 -525 298 -59 15 -209 17 -1540 19 -1175 2 -1491 0 -1552 -11z m292
-262 c0 -5 -106 -236 -237 -515 l-237 -508 -208 0 -208 0 0 139 c0 318 61 494
229 662 154 153 333 224 579 228 45 0 82 -2 82 -6z m1249 -5 c0 -7 -107 -240
-237 -518 l-237 -505 -472 -3 c-274 -1 -473 2 -473 7 0 8 416 905 460 991 l20
40 470 0 c370 0 470 -3 469 -12z m1251 2 c0 -12 -459 -999 -473 -1017 -7 -10
-115 -13 -478 -13 -258 0 -469 3 -469 8 0 7 462 1002 476 1023 8 13 944 12
944 -1z m405 -66 c155 -73 283 -200 360 -359 63 -128 75 -189 82 -407 l6 -188
-513 0 c-406 0 -511 3 -507 13 3 6 98 212 212 457 114 245 216 464 226 488 22
50 20 50 134 -4z m443 -2371 c-3 -1134 -3 -1138 -25 -1215 -78 -276 -282 -478
-557 -551 l-81 -22 -1455 0 -1455 0 -83 22 c-275 73 -476 273 -554 549 l-23
79 -3 1138 -3 1137 2121 0 2121 0 -3 -1137z"/>
<path d="M2085 2742 c-57 -27 -101 -67 -133 -121 l-27 -46 -3 -519 c-3 -571
-3 -574 58 -648 43 -52 139 -98 205 -98 29 0 70 6 91 14 32 11 823 465 945
542 106 67 150 185 115 308 -13 44 -29 70 -64 105 -42 42 -94 68 -522 261
-468 211 -476 215 -550 218 -57 2 -85 -2 -115 -16z m548 -446 c236 -106 428
-197 428 -202 0 -8 -109 -73 -648 -385 l-223 -128 0 454 c0 250 4 455 8 455 4
0 200 -87 435 -194z"/>
</g>
</svg>
